<svg width="60" height="38" fill="none" xmlns="http://www.w3.org/2000/svg"><path d="M25.135 26.919v4.595c-2.378 1.945-4.775 3.396-7.19 4.35-2.414.956-4.828 1.433-7.242 1.433-3.244 0-5.838-.9-7.784-2.702C.973 32.793 0 30.396 0 27.405c0-2.774.775-5.08 2.324-6.919 1.406-1.657 3.46-2.937 6.162-3.837-2.018-1.37-3.027-3.334-3.027-5.892 0-2.63 1.046-5.01 3.136-7.135 2.342-2.379 5.279-3.568 8.81-3.568 2.054 0 3.703.568 4.946 1.703 1.244 1.135 1.865 2.621 1.865 4.46 0 1.585-.54 2.99-1.621 4.215-1.081 1.226-2.307 1.838-3.676 1.838-.216 0-.45-.243-.703-.73a3.413 3.413 0 0 1-.378-1.594c0-.144.423-.55 1.27-1.216.847-.667 1.27-1.45 1.27-2.352 0-.9-.324-1.64-.973-2.216-.648-.576-1.477-.865-2.486-.865-1.838 0-3.514.83-5.027 2.487-1.514 1.657-2.27 3.495-2.27 5.513 0 1.153.315 2.135.946 2.946.63.811 1.432 1.216 2.405 1.216h2.486c.937 0 1.532.07 1.784.21.253.14.379.473.379.998 0 1.156-.163 1.856-.487 2.1-.324.246-.973.368-1.946.368-.36 0-.919-.054-1.675-.162-.757-.108-1.334-.162-1.73-.162-1.37 0-2.865.703-4.487 2.108-2.018 1.73-3.027 3.856-3.027 6.378 0 1.91.667 3.442 2 4.595 1.334 1.153 3.135 1.73 5.406 1.73 4.576 0 9.063-2.235 13.46-6.703Zm6.54-.27L36.702 6a290.594 290.594 0 0 1-4.054 2.54c-2.198 1.37-3.441 2.055-3.73 2.055-.143-.109-.215-.199-.215-.27 0-.217.108-.676.324-1.38a67.29 67.29 0 0 1 .756-2.296 119.626 119.626 0 0 0 4.865-3.054c1.55-1.027 3.262-2.19 5.135-3.487L41.19.054c.72 0 1.333.108 1.838.324l-.595 2c-1.37 4.613-2.72 9.694-4.054 15.244 1.766-1.226 3.622-2.757 5.568-4.595 1.297-1.225 3.009-2.991 5.135-5.297A668.887 668.887 0 0 1 54 2.324 17.658 17.658 0 0 1 55.54.676c.487-.45.856-.676 1.108-.676.289 0 .694.441 1.217 1.324.522.883.783 1.469.783 1.757 0 .469-1.153 1.784-3.459 3.946a202.6 202.6 0 0 1-6.703 5.892l-4.324 3.567c1.441 1.046 2.414 2.45 2.919 4.217.396 1.405.594 3.405.594 6v1.784c0 1.765.154 3.063.46 3.891.306.83.964 1.244 1.973 1.244 2.198 0 5.495-2.235 9.892-6.703v4.595c-2.595 2.162-4.712 3.666-6.352 4.513-1.64.847-3.252 1.27-4.837 1.27-2.379 0-3.982-1.08-4.811-3.243-.54-1.405-.811-3.514-.811-6.324v-1.676c0-2.054-.126-3.604-.378-4.649a5.83 5.83 0 0 0-1.46-2.702c-1.045.829-1.856 1.423-2.432 1.784l-1.352.81-.54 2.325c-1.01 4.504-1.982 7.675-2.92 9.513-1.404 2.775-3.206 4.162-5.404 4.162a4.64 4.64 0 0 1-1.055-.108c-.306-.072-.657-.216-1.054-.432l-.864-3.784 1.675.162c1.01 0 1.829-.486 2.46-1.46.63-.972 1.234-2.648 1.81-5.026Z" fill="#FFF7F7"/></svg>